<mxfile host="Electron" agent="Mozilla/5.0 (Windows NT 10.0; Win64; x64) AppleWebKit/537.36 (KHTML, like Gecko) draw.io/24.7.5 Chrome/126.0.6478.183 Electron/31.3.0 Safari/537.36" version="24.7.5">
  <diagram name="Page-1" id="2YBvvXClWsGukQMizWep">
    <mxGraphModel dx="1038" dy="623" grid="1" gridSize="10" guides="1" tooltips="1" connect="1" arrows="1" fold="1" page="1" pageScale="1" pageWidth="1100" pageHeight="850" background="none" math="0" shadow="0">
      <root>
        <mxCell id="0" />
        <mxCell id="1" parent="0" />
        <mxCell id="8JbK2fZqOktujpmfCToJ-1" value="&lt;h1 style=&quot;margin-top: 0px;&quot;&gt;Show Contact Stats&lt;/h1&gt;" style="text;html=1;whiteSpace=wrap;overflow=hidden;rounded=0;align=center;fillColor=#fff2cc;strokeColor=#d6b656;" parent="1" vertex="1">
          <mxGeometry x="40" y="40" width="260" height="50" as="geometry" />
        </mxCell>
        <mxCell id="8JbK2fZqOktujpmfCToJ-2" value="" style="shape=umlLifeline;perimeter=lifelinePerimeter;whiteSpace=wrap;html=1;container=1;dropTarget=0;collapsible=0;recursiveResize=0;outlineConnect=0;portConstraint=eastwest;newEdgeStyle={&quot;curved&quot;:0,&quot;rounded&quot;:0};participant=umlActor;rounded=0;" parent="1" vertex="1">
          <mxGeometry x="70" y="160" width="20" height="240" as="geometry" />
        </mxCell>
        <mxCell id="8JbK2fZqOktujpmfCToJ-21" value="" style="html=1;points=[[0,0,0,0,5],[0,1,0,0,-5],[1,0,0,0,5],[1,1,0,0,-5]];perimeter=orthogonalPerimeter;outlineConnect=0;targetShapes=umlLifeline;portConstraint=eastwest;newEdgeStyle={&quot;curved&quot;:0,&quot;rounded&quot;:0};fillColor=#fff2cc;strokeColor=#d6b656;rounded=0;" parent="8JbK2fZqOktujpmfCToJ-2" vertex="1">
          <mxGeometry x="5" y="50" width="10" height="190" as="geometry" />
        </mxCell>
        <mxCell id="8JbK2fZqOktujpmfCToJ-3" value="" style="shape=umlLifeline;perimeter=lifelinePerimeter;whiteSpace=wrap;html=1;container=1;dropTarget=0;collapsible=0;recursiveResize=0;outlineConnect=0;portConstraint=eastwest;newEdgeStyle={&quot;curved&quot;:0,&quot;rounded&quot;:0};participant=umlActor;rounded=0;" parent="1" vertex="1">
          <mxGeometry x="950" y="160" width="20" height="240" as="geometry" />
        </mxCell>
        <mxCell id="8JbK2fZqOktujpmfCToJ-27" value="" style="html=1;points=[[0,0,0,0,5],[0,1,0,0,-5],[1,0,0,0,5],[1,1,0,0,-5]];perimeter=orthogonalPerimeter;outlineConnect=0;targetShapes=umlLifeline;portConstraint=eastwest;newEdgeStyle={&quot;curved&quot;:0,&quot;rounded&quot;:0};fillColor=#fff2cc;strokeColor=#d6b656;rounded=0;" parent="8JbK2fZqOktujpmfCToJ-3" vertex="1">
          <mxGeometry x="5" y="50" width="10" height="190" as="geometry" />
        </mxCell>
        <mxCell id="8JbK2fZqOktujpmfCToJ-4" value="Client" style="text;align=center;fontStyle=1;verticalAlign=middle;spacingLeft=3;spacingRight=3;strokeColor=none;rotatable=0;points=[[0,0.5],[1,0.5]];portConstraint=eastwest;html=1;rounded=0;" parent="1" vertex="1">
          <mxGeometry x="40" y="134" width="80" height="26" as="geometry" />
        </mxCell>
        <mxCell id="8JbK2fZqOktujpmfCToJ-5" value="DB" style="text;align=center;fontStyle=1;verticalAlign=middle;spacingLeft=3;spacingRight=3;strokeColor=none;rotatable=0;points=[[0,0.5],[1,0.5]];portConstraint=eastwest;html=1;rounded=0;" parent="1" vertex="1">
          <mxGeometry x="920" y="134" width="80" height="26" as="geometry" />
        </mxCell>
        <mxCell id="8JbK2fZqOktujpmfCToJ-6" value=":ContactListView" style="shape=umlLifeline;perimeter=lifelinePerimeter;whiteSpace=wrap;html=1;container=1;dropTarget=0;collapsible=0;recursiveResize=0;outlineConnect=0;portConstraint=eastwest;newEdgeStyle={&quot;curved&quot;:0,&quot;rounded&quot;:0};fillColor=#ffe6cc;strokeColor=#d79b00;rounded=0;" parent="1" vertex="1">
          <mxGeometry x="220" y="160" width="100" height="240" as="geometry" />
        </mxCell>
        <mxCell id="8JbK2fZqOktujpmfCToJ-22" value="" style="html=1;points=[[0,0,0,0,5],[0,1,0,0,-5],[1,0,0,0,5],[1,1,0,0,-5]];perimeter=orthogonalPerimeter;outlineConnect=0;targetShapes=umlLifeline;portConstraint=eastwest;newEdgeStyle={&quot;curved&quot;:0,&quot;rounded&quot;:0};fillColor=#ffe6cc;strokeColor=#d79b00;rounded=0;" parent="8JbK2fZqOktujpmfCToJ-6" vertex="1">
          <mxGeometry x="45" y="165" width="10" height="75" as="geometry" />
        </mxCell>
        <mxCell id="8JbK2fZqOktujpmfCToJ-7" value=":ContactListController" style="shape=umlLifeline;perimeter=lifelinePerimeter;whiteSpace=wrap;html=1;container=1;dropTarget=0;collapsible=0;recursiveResize=0;outlineConnect=0;portConstraint=eastwest;newEdgeStyle={&quot;curved&quot;:0,&quot;rounded&quot;:0};fillColor=#e1d5e7;strokeColor=#9673a6;rounded=0;" parent="1" vertex="1">
          <mxGeometry x="380" y="160" width="160" height="240" as="geometry" />
        </mxCell>
        <mxCell id="8JbK2fZqOktujpmfCToJ-23" value="" style="html=1;points=[[0,0,0,0,5],[0,1,0,0,-5],[1,0,0,0,5],[1,1,0,0,-5]];perimeter=orthogonalPerimeter;outlineConnect=0;targetShapes=umlLifeline;portConstraint=eastwest;newEdgeStyle={&quot;curved&quot;:0,&quot;rounded&quot;:0};fillColor=#e1d5e7;strokeColor=#9673a6;rounded=0;" parent="8JbK2fZqOktujpmfCToJ-7" vertex="1">
          <mxGeometry x="75" y="50" width="10" height="190" as="geometry" />
        </mxCell>
        <mxCell id="8JbK2fZqOktujpmfCToJ-8" value=":ContactList" style="shape=umlLifeline;perimeter=lifelinePerimeter;whiteSpace=wrap;html=1;container=1;dropTarget=0;collapsible=0;recursiveResize=0;outlineConnect=0;portConstraint=eastwest;newEdgeStyle={&quot;curved&quot;:0,&quot;rounded&quot;:0};fillColor=#f8cecc;strokeColor=#b85450;rounded=0;" parent="1" vertex="1">
          <mxGeometry x="610" y="160" width="100" height="240" as="geometry" />
        </mxCell>
        <mxCell id="8JbK2fZqOktujpmfCToJ-24" value="" style="html=1;points=[[0,0,0,0,5],[0,1,0,0,-5],[1,0,0,0,5],[1,1,0,0,-5]];perimeter=orthogonalPerimeter;outlineConnect=0;targetShapes=umlLifeline;portConstraint=eastwest;newEdgeStyle={&quot;curved&quot;:0,&quot;rounded&quot;:0};fillColor=#f8cecc;strokeColor=#b85450;rounded=0;" parent="8JbK2fZqOktujpmfCToJ-8" vertex="1">
          <mxGeometry x="45" y="50" width="10" height="190" as="geometry" />
        </mxCell>
        <mxCell id="8JbK2fZqOktujpmfCToJ-9" value=":ContactListRepo" style="shape=umlLifeline;perimeter=lifelinePerimeter;whiteSpace=wrap;html=1;container=1;dropTarget=0;collapsible=0;recursiveResize=0;outlineConnect=0;portConstraint=eastwest;newEdgeStyle={&quot;curved&quot;:0,&quot;rounded&quot;:0};fillColor=#dae8fc;strokeColor=#6c8ebf;rounded=0;" parent="1" vertex="1">
          <mxGeometry x="760" y="160" width="110" height="240" as="geometry" />
        </mxCell>
        <mxCell id="8JbK2fZqOktujpmfCToJ-26" value="" style="html=1;points=[[0,0,0,0,5],[0,1,0,0,-5],[1,0,0,0,5],[1,1,0,0,-5]];perimeter=orthogonalPerimeter;outlineConnect=0;targetShapes=umlLifeline;portConstraint=eastwest;newEdgeStyle={&quot;curved&quot;:0,&quot;rounded&quot;:0};fillColor=#dae8fc;strokeColor=#6c8ebf;rounded=0;" parent="8JbK2fZqOktujpmfCToJ-9" vertex="1">
          <mxGeometry x="50" y="50" width="10" height="190" as="geometry" />
        </mxCell>
        <mxCell id="8JbK2fZqOktujpmfCToJ-10" value="Press Statistics Link" style="html=1;verticalAlign=bottom;startArrow=oval;startFill=1;endArrow=block;startSize=8;curved=0;rounded=0;" parent="1" target="8JbK2fZqOktujpmfCToJ-23" edge="1">
          <mxGeometry width="60" relative="1" as="geometry">
            <mxPoint x="90" y="240" as="sourcePoint" />
            <mxPoint x="450" y="240" as="targetPoint" />
          </mxGeometry>
        </mxCell>
        <mxCell id="8JbK2fZqOktujpmfCToJ-12" value="getContactStats()" style="html=1;verticalAlign=bottom;endArrow=block;curved=0;rounded=0;" parent="1" target="8JbK2fZqOktujpmfCToJ-24" edge="1">
          <mxGeometry x="0.0028" width="80" relative="1" as="geometry">
            <mxPoint x="465" y="240" as="sourcePoint" />
            <mxPoint x="630" y="240" as="targetPoint" />
            <mxPoint as="offset" />
          </mxGeometry>
        </mxCell>
        <mxCell id="8JbK2fZqOktujpmfCToJ-14" value="fetchAllContacts()" style="html=1;verticalAlign=bottom;endArrow=block;curved=0;rounded=0;" parent="1" source="8JbK2fZqOktujpmfCToJ-24" edge="1">
          <mxGeometry width="80" relative="1" as="geometry">
            <mxPoint x="670" y="240" as="sourcePoint" />
            <mxPoint x="810" y="240" as="targetPoint" />
          </mxGeometry>
        </mxCell>
        <mxCell id="8JbK2fZqOktujpmfCToJ-15" value="selectAll($sql)" style="html=1;verticalAlign=bottom;endArrow=block;curved=0;rounded=0;" parent="1" target="8JbK2fZqOktujpmfCToJ-27" edge="1">
          <mxGeometry width="80" relative="1" as="geometry">
            <mxPoint x="820" y="240" as="sourcePoint" />
            <mxPoint x="950" y="240" as="targetPoint" />
          </mxGeometry>
        </mxCell>
        <mxCell id="8JbK2fZqOktujpmfCToJ-16" value="$contacts" style="html=1;verticalAlign=bottom;endArrow=open;dashed=1;endSize=8;curved=0;rounded=0;" parent="1" edge="1">
          <mxGeometry relative="1" as="geometry">
            <mxPoint x="955" y="271" as="sourcePoint" />
            <mxPoint x="820" y="271" as="targetPoint" />
          </mxGeometry>
        </mxCell>
        <mxCell id="8JbK2fZqOktujpmfCToJ-17" value="$contacts" style="html=1;verticalAlign=bottom;endArrow=open;dashed=1;endSize=8;curved=0;rounded=0;" parent="1" edge="1">
          <mxGeometry y="52" relative="1" as="geometry">
            <mxPoint x="685.3058252427184" y="297" as="sourcePoint" />
            <mxPoint x="685.3058252427184" y="297" as="targetPoint" />
            <mxPoint x="45" y="-26" as="offset" />
          </mxGeometry>
        </mxCell>
        <mxCell id="8JbK2fZqOktujpmfCToJ-18" value="$contacts" style="html=1;verticalAlign=bottom;endArrow=open;dashed=1;endSize=8;curved=0;rounded=0;" parent="1" source="8JbK2fZqOktujpmfCToJ-24" edge="1">
          <mxGeometry relative="1" as="geometry">
            <mxPoint x="635" y="271" as="sourcePoint" />
            <mxPoint x="465" y="271" as="targetPoint" />
          </mxGeometry>
        </mxCell>
        <mxCell id="8JbK2fZqOktujpmfCToJ-19" value="renderContactStats($stats)" style="html=1;verticalAlign=bottom;endArrow=block;curved=0;rounded=0;" parent="1" edge="1">
          <mxGeometry width="80" relative="1" as="geometry">
            <mxPoint x="455" y="366" as="sourcePoint" />
            <mxPoint x="275" y="366" as="targetPoint" />
          </mxGeometry>
        </mxCell>
        <mxCell id="8JbK2fZqOktujpmfCToJ-20" value="displayContactStats($stats)" style="html=1;verticalAlign=bottom;endArrow=block;curved=0;rounded=0;" parent="1" edge="1">
          <mxGeometry width="80" relative="1" as="geometry">
            <mxPoint x="265" y="366" as="sourcePoint" />
            <mxPoint x="85" y="366" as="targetPoint" />
          </mxGeometry>
        </mxCell>
        <mxCell id="8JbK2fZqOktujpmfCToJ-25" value="" style="html=1;verticalAlign=bottom;endArrow=open;dashed=1;endSize=8;curved=0;rounded=0;" parent="1" edge="1">
          <mxGeometry relative="1" as="geometry">
            <mxPoint x="810" y="271" as="sourcePoint" />
            <mxPoint x="665" y="271" as="targetPoint" />
          </mxGeometry>
        </mxCell>
        <mxCell id="u5enP1tCNuDUzCMMmdSb-2" value="countContactGenders($contacts)" style="html=1;verticalAlign=bottom;endArrow=block;curved=0;rounded=0;" parent="1" edge="1">
          <mxGeometry width="80" relative="1" as="geometry">
            <mxPoint x="465" y="329" as="sourcePoint" />
            <mxPoint x="655" y="329" as="targetPoint" />
          </mxGeometry>
        </mxCell>
        <mxCell id="u5enP1tCNuDUzCMMmdSb-4" value="$stats" style="html=1;verticalAlign=bottom;endArrow=open;dashed=1;endSize=8;curved=0;rounded=0;" parent="1" source="8JbK2fZqOktujpmfCToJ-24" edge="1">
          <mxGeometry relative="1" as="geometry">
            <mxPoint x="645" y="366" as="sourcePoint" />
            <mxPoint x="465" y="366" as="targetPoint" />
          </mxGeometry>
        </mxCell>
      </root>
    </mxGraphModel>
  </diagram>
</mxfile>
